<svg width="204" height="32" viewBox="0 0 204 32" fill="none" xmlns="http://www.w3.org/2000/svg">
<path d="M39.9246 26.4453V27.9141H39.7799C39.6942 27.5752 39.599 27.3324 39.4945 27.1857C39.39 27.0363 39.2467 26.9176 39.0645 26.8295C38.9627 26.7815 38.7845 26.7575 38.5299 26.7575H38.124V30.9435C38.124 31.221 38.1387 31.3944 38.1682 31.4638C38.2003 31.5331 38.2606 31.5945 38.349 31.6478C38.4401 31.6985 38.5634 31.7239 38.7188 31.7239H38.8997V31.872H36.046V31.7239H36.2269C36.385 31.7239 36.5122 31.6959 36.6087 31.6398C36.6784 31.6025 36.7333 31.5385 36.7735 31.4478C36.803 31.3837 36.8177 31.2156 36.8177 30.9435V26.7575H36.4238C36.0567 26.7575 35.7901 26.8349 35.624 26.9896C35.3908 27.2057 35.2435 27.5139 35.1818 27.9141H35.0291V26.4453H39.9246Z" fill="#1A1919"/>
<path d="M43.4939 26.3693C44.3621 26.3373 45.0668 26.5894 45.6081 27.1257C46.152 27.6619 46.424 28.3329 46.424 29.1386C46.424 29.827 46.2217 30.4326 45.8171 30.9555C45.2812 31.6492 44.5242 31.996 43.5462 31.996C42.5655 31.996 41.8072 31.6652 41.2713 31.0035C40.8479 30.4806 40.6362 29.8603 40.6362 29.1426C40.6362 28.3369 40.9109 27.6659 41.4602 27.1297C42.0121 26.5908 42.6901 26.3373 43.4939 26.3693ZM43.5422 26.6254C43.0438 26.6254 42.6646 26.8789 42.4047 27.3858C42.193 27.802 42.0872 28.3996 42.0872 29.1787C42.0872 30.1044 42.2506 30.7888 42.5775 31.2316C42.8053 31.5411 43.1241 31.6959 43.5341 31.6959C43.8101 31.6959 44.0405 31.6292 44.2254 31.4958C44.4612 31.325 44.6448 31.0529 44.7761 30.6794C44.9074 30.3032 44.973 29.8136 44.973 29.2107C44.973 28.493 44.906 27.9567 44.7721 27.6019C44.6381 27.2444 44.4666 26.9923 44.2576 26.8455C44.0513 26.6988 43.8128 26.6254 43.5422 26.6254Z" fill="#1A1919"/>
<path d="M53.1366 26.3213L53.1808 28.1302H53.016C52.9383 27.6766 52.7467 27.3124 52.4412 27.0376C52.1384 26.7602 51.8102 26.6214 51.4565 26.6214C51.1832 26.6214 50.9661 26.6948 50.8054 26.8415C50.6473 26.9856 50.5682 27.1524 50.5682 27.3418C50.5682 27.4618 50.5964 27.5686 50.6526 27.6619C50.7303 27.7873 50.8549 27.9114 51.0264 28.0341C51.1524 28.1222 51.4431 28.2782 51.8986 28.5023C52.5363 28.8145 52.9664 29.1093 53.1888 29.3868C53.4085 29.6642 53.5184 29.9817 53.5184 30.3392C53.5184 30.7928 53.3402 31.1836 52.9838 31.5118C52.6301 31.8373 52.18 32 51.6333 32C51.4619 32 51.2997 31.9827 51.147 31.948C50.9943 31.9133 50.8027 31.8479 50.5723 31.7519C50.4436 31.6985 50.3378 31.6719 50.2547 31.6719C50.1851 31.6719 50.1114 31.6985 50.0337 31.7519C49.956 31.8053 49.893 31.8866 49.8448 31.996H49.6961V29.947H49.8448C49.9627 30.5233 50.1891 30.9635 50.524 31.2677C50.8616 31.5691 51.2247 31.7199 51.6132 31.7199C51.9134 31.7199 52.1518 31.6385 52.3287 31.4758C52.5082 31.313 52.598 31.1236 52.598 30.9075C52.598 30.7794 52.5631 30.6554 52.4935 30.5353C52.4265 30.4153 52.3233 30.3019 52.184 30.1952C52.0447 30.0858 51.7981 29.9444 51.4444 29.7709C50.9487 29.5282 50.5924 29.3214 50.3753 29.1506C50.1583 28.9799 49.9908 28.7891 49.8729 28.5784C49.7577 28.3676 49.7001 28.1355 49.7001 27.882C49.7001 27.4498 49.8595 27.0817 50.1784 26.7775C50.4972 26.4734 50.8992 26.3213 51.3841 26.3213C51.561 26.3213 51.7325 26.3426 51.8986 26.3853C52.0246 26.4173 52.1773 26.4774 52.3568 26.5654C52.539 26.6508 52.6663 26.6935 52.7387 26.6935C52.8083 26.6935 52.8632 26.6721 52.9034 26.6294C52.9436 26.5868 52.9811 26.484 53.016 26.3213H53.1366Z" fill="#1A1919"/>
<path d="M56.3401 26.7575V28.9666H56.4486C56.7943 28.9666 57.0448 28.8585 57.2002 28.6424C57.3557 28.4263 57.4548 28.1075 57.4977 27.6859H57.6504V30.5273H57.4977C57.4655 30.2178 57.3972 29.9644 57.2927 29.7669C57.1909 29.5695 57.0716 29.4375 56.935 29.3708C56.7983 29.3014 56.6 29.2667 56.3401 29.2667V30.7954C56.3401 31.0942 56.3522 31.277 56.3763 31.3437C56.4031 31.4104 56.4513 31.4651 56.521 31.5078C56.5907 31.5505 56.7032 31.5718 56.8586 31.5718H57.1842C57.6933 31.5718 58.1006 31.4544 58.406 31.2196C58.7142 30.9849 58.9352 30.6274 59.0692 30.1471H59.2179L58.9728 31.872H54.2621V31.7239H54.443C54.6011 31.7239 54.7284 31.6959 54.8248 31.6398C54.8945 31.6025 54.9481 31.5385 54.9856 31.4478C55.0151 31.3837 55.0298 31.2156 55.0298 30.9435V27.3738C55.0298 27.1283 55.0231 26.9776 55.0097 26.9216C54.9829 26.8282 54.9334 26.7562 54.861 26.7055C54.7592 26.6308 54.6199 26.5934 54.443 26.5934H54.2621V26.4453H58.824V28.0501H58.6713C58.5936 27.6579 58.4837 27.3765 58.3417 27.2057C58.2024 27.035 58.0041 26.9096 57.7469 26.8295C57.5968 26.7815 57.3155 26.7575 56.9028 26.7575H56.3401Z" fill="#1A1919"/>
<path d="M62.0196 29.3988V30.9195C62.0196 31.213 62.037 31.3984 62.0718 31.4758C62.1093 31.5505 62.1736 31.6105 62.2647 31.6559C62.3558 31.7012 62.526 31.7239 62.7752 31.7239V31.872H59.9858V31.7239C60.2377 31.7239 60.4078 31.7012 60.4962 31.6559C60.5873 31.6078 60.6503 31.5465 60.6852 31.4718C60.7227 31.3971 60.7414 31.213 60.7414 30.9195V27.3978C60.7414 27.1043 60.7227 26.9202 60.6852 26.8455C60.6503 26.7682 60.5873 26.7068 60.4962 26.6615C60.4051 26.6161 60.235 26.5934 59.9858 26.5934V26.4453H62.5179C63.1771 26.4453 63.6594 26.4907 63.9649 26.5814C64.2704 26.6721 64.5196 26.8402 64.7125 27.0857C64.9054 27.3284 65.0019 27.6139 65.0019 27.9421C65.0019 28.3423 64.8572 28.6731 64.5678 28.9345C64.3829 29.1 64.1243 29.224 63.7921 29.3067L65.1024 31.1436C65.2738 31.3811 65.3958 31.5291 65.4681 31.5878C65.578 31.6705 65.7052 31.7159 65.8499 31.7239V31.872H64.1337L62.3773 29.3988H62.0196ZM62.0196 26.7375V29.1146H62.2487C62.6211 29.1146 62.8998 29.0813 63.0847 29.0146C63.2696 28.9452 63.4142 28.8225 63.5188 28.6464C63.6259 28.4677 63.6795 28.2355 63.6795 27.9501C63.6795 27.5365 63.5817 27.2311 63.3861 27.0336C63.1932 26.8362 62.881 26.7375 62.4496 26.7375H62.0196Z" fill="#1A1919"/>
<path d="M71.5977 26.4453V26.5934C71.3994 26.6254 71.2226 26.7308 71.0672 26.9096C70.9546 27.043 70.7871 27.3565 70.5647 27.85L68.6877 31.996H68.5551L66.6861 27.6819C66.4611 27.1617 66.3097 26.8562 66.232 26.7655C66.1569 26.6748 66.0136 26.6174 65.8019 26.5934V26.4453H68.4144V26.5934H68.326C68.0902 26.5934 67.9294 26.6228 67.8437 26.6815C67.7821 26.7215 67.7512 26.7802 67.7512 26.8575C67.7512 26.9056 67.762 26.9629 67.7834 27.0296C67.8048 27.0937 67.8772 27.2684 68.0004 27.5539L69.162 30.2552L70.2392 27.85C70.3678 27.5592 70.4468 27.3645 70.4763 27.2657C70.5058 27.167 70.5205 27.083 70.5205 27.0136C70.5205 26.9336 70.4991 26.8629 70.4562 26.8015C70.4134 26.7402 70.3504 26.6935 70.2673 26.6615C70.1521 26.6161 69.9994 26.5934 69.8091 26.5934V26.4453H71.5977Z" fill="#1A1919"/>
<path d="M74.1743 26.7575V28.9666H74.2828C74.6284 28.9666 74.879 28.8585 75.0344 28.6424C75.1898 28.4263 75.2889 28.1075 75.3318 27.6859H75.4845V30.5273H75.3318C75.2997 30.2178 75.2313 29.9644 75.1268 29.7669C75.025 29.5695 74.9058 29.4375 74.7691 29.3708C74.6325 29.3014 74.4342 29.2667 74.1743 29.2667V30.7954C74.1743 31.0942 74.1863 31.277 74.2104 31.3437C74.2372 31.4104 74.2855 31.4651 74.3551 31.5078C74.4248 31.5505 74.5373 31.5718 74.6927 31.5718H75.0183C75.5274 31.5718 75.9347 31.4544 76.2402 31.2196C76.5483 30.9849 76.7694 30.6274 76.9033 30.1471H77.0521L76.8069 31.872H72.0963V31.7239H72.2771C72.4352 31.7239 72.5625 31.6959 72.659 31.6398C72.7286 31.6025 72.7822 31.5385 72.8198 31.4478C72.8492 31.3837 72.864 31.2156 72.864 30.9435V27.3738C72.864 27.1283 72.8573 26.9776 72.8439 26.9216C72.8171 26.8282 72.7675 26.7562 72.6952 26.7055C72.5933 26.6308 72.454 26.5934 72.2771 26.5934H72.0963V26.4453H76.6582V28.0501H76.5054C76.4277 27.6579 76.3179 27.3765 76.1759 27.2057C76.0365 27.035 75.8382 26.9096 75.581 26.8295C75.431 26.7815 75.1496 26.7575 74.737 26.7575H74.1743Z" fill="#1A1919"/>
<path d="M85.0106 26.4453V27.9141H84.8659C84.7802 27.5752 84.6851 27.3324 84.5806 27.1857C84.4761 27.0363 84.3327 26.9176 84.1505 26.8295C84.0487 26.7815 83.8705 26.7575 83.6159 26.7575H83.21V30.9435C83.21 31.221 83.2247 31.3944 83.2542 31.4638C83.2863 31.5331 83.3466 31.5945 83.4351 31.6478C83.5262 31.6985 83.6494 31.7239 83.8048 31.7239H83.9857V31.872H81.132V31.7239H81.3129C81.471 31.7239 81.5982 31.6959 81.6947 31.6398C81.7644 31.6025 81.8193 31.5385 81.8595 31.4478C81.889 31.3837 81.9037 31.2156 81.9037 30.9435V26.7575H81.5098C81.1427 26.7575 80.8761 26.8349 80.71 26.9896C80.4769 27.2057 80.3295 27.5139 80.2679 27.9141H80.1151V26.4453H85.0106Z" fill="#1A1919"/>
<path d="M87.8042 29.2627V30.9435C87.8042 31.221 87.819 31.3944 87.8484 31.4638C87.8806 31.5331 87.9409 31.5945 88.0293 31.6478C88.1204 31.6985 88.2423 31.7239 88.395 31.7239H88.5759V31.872H85.7262V31.7239H85.9071C86.0652 31.7239 86.1925 31.6959 86.2889 31.6398C86.3586 31.6025 86.4122 31.5385 86.4497 31.4478C86.4792 31.3837 86.4939 31.2156 86.4939 30.9435V27.3738C86.4939 27.0963 86.4792 26.9229 86.4497 26.8535C86.4202 26.7842 86.3599 26.7241 86.2688 26.6735C86.1804 26.6201 86.0598 26.5934 85.9071 26.5934H85.7262V26.4453H88.5759V26.5934H88.395C88.237 26.5934 88.1097 26.6214 88.0132 26.6775C87.9435 26.7148 87.8886 26.7788 87.8484 26.8696C87.819 26.9336 87.8042 27.1017 87.8042 27.3738V28.9105H89.7295V27.3738C89.7295 27.0963 89.7147 26.9229 89.6852 26.8535C89.6558 26.7842 89.5955 26.7241 89.5044 26.6735C89.4133 26.6201 89.2913 26.5934 89.1386 26.5934H88.9618V26.4453H91.8074V26.5934H91.6306C91.4698 26.5934 91.3425 26.6214 91.2487 26.6775C91.1791 26.7148 91.1241 26.7788 91.0839 26.8696C91.0545 26.9336 91.0397 27.1017 91.0397 27.3738V30.9435C91.0397 31.221 91.0545 31.3944 91.0839 31.4638C91.1134 31.5331 91.1737 31.5945 91.2648 31.6478C91.3559 31.6985 91.4778 31.7239 91.6306 31.7239H91.8074V31.872H88.9618V31.7239H89.1386C89.2994 31.7239 89.4267 31.6959 89.5204 31.6398C89.5901 31.6025 89.645 31.5385 89.6852 31.4478C89.7147 31.3837 89.7295 31.2156 89.7295 30.9435V29.2627H87.8042Z" fill="#1A1919"/>
<path d="M94.4483 26.7575V28.9666H94.5568C94.9025 28.9666 95.153 28.8585 95.3084 28.6424C95.4638 28.4263 95.563 28.1075 95.6058 27.6859H95.7586V30.5273H95.6058C95.5737 30.2178 95.5054 29.9644 95.4009 29.7669C95.299 29.5695 95.1798 29.4375 95.0431 29.3708C94.9065 29.3014 94.7082 29.2667 94.4483 29.2667V30.7954C94.4483 31.0942 94.4603 31.277 94.4845 31.3437C94.5112 31.4104 94.5595 31.4651 94.6291 31.5078C94.6988 31.5505 94.8114 31.5718 94.9668 31.5718H95.2923C95.8014 31.5718 96.2087 31.4544 96.5142 31.2196C96.8223 30.9849 97.0434 30.6274 97.1774 30.1471H97.3261L97.0809 31.872H92.3703V31.7239H92.5512C92.7093 31.7239 92.8365 31.6959 92.933 31.6398C93.0027 31.6025 93.0563 31.5385 93.0938 31.4478C93.1233 31.3837 93.138 31.2156 93.138 30.9435V27.3738C93.138 27.1283 93.1313 26.9776 93.1179 26.9216C93.0911 26.8282 93.0415 26.7562 92.9692 26.7055C92.8674 26.6308 92.728 26.5934 92.5512 26.5934H92.3703V26.4453H96.9322V28.0501H96.7795C96.7018 27.6579 96.5919 27.3765 96.4499 27.2057C96.3106 27.035 96.1123 26.9096 95.855 26.8295C95.705 26.7815 95.4236 26.7575 95.011 26.7575H94.4483Z" fill="#1A1919"/>
<path d="M102.294 26.4453L104.983 29.811V27.4778C104.983 27.1524 104.936 26.9322 104.843 26.8175C104.714 26.6628 104.498 26.5881 104.195 26.5934V26.4453H105.996V26.5934C105.766 26.6228 105.61 26.6615 105.53 26.7095C105.452 26.7548 105.39 26.8309 105.345 26.9376C105.302 27.0416 105.281 27.2217 105.281 27.4778V31.996H105.144L101.458 27.4778V30.9275C101.458 31.2397 101.529 31.4504 101.671 31.5598C101.816 31.6692 101.981 31.7239 102.166 31.7239H102.294V31.872H100.361V31.7239C100.661 31.7212 100.87 31.6599 100.988 31.5398C101.106 31.4197 101.165 31.2156 101.165 30.9275V27.0977L101.048 26.9536C100.933 26.8095 100.831 26.7148 100.743 26.6695C100.654 26.6241 100.527 26.5988 100.361 26.5934V26.4453H102.294Z" fill="#1A1919"/>
<path d="M109.863 30.3272H107.938L107.708 30.8555C107.633 31.0316 107.596 31.177 107.596 31.2917C107.596 31.4438 107.658 31.5558 107.781 31.6278C107.853 31.6705 108.031 31.7025 108.315 31.7239V31.872H106.503V31.7239C106.698 31.6945 106.859 31.6145 106.985 31.4838C107.111 31.3504 107.266 31.0769 107.451 30.6634L109.401 26.3333H109.477L111.442 30.7834C111.63 31.205 111.784 31.4704 111.905 31.5798C111.996 31.6625 112.124 31.7105 112.29 31.7239V31.872H109.654V31.7239H109.762C109.974 31.7239 110.123 31.6945 110.208 31.6358C110.267 31.5932 110.297 31.5318 110.297 31.4518C110.297 31.4037 110.289 31.3544 110.273 31.3037C110.267 31.2797 110.227 31.1796 110.152 31.0035L109.863 30.3272ZM109.726 30.0311L108.914 28.1622L108.078 30.0311H109.726Z" fill="#1A1919"/>
<path d="M117.214 26.4453V27.9141H117.07C116.984 27.5752 116.889 27.3324 116.784 27.1857C116.68 27.0363 116.536 26.9176 116.354 26.8295C116.252 26.7815 116.074 26.7575 115.82 26.7575H115.414V30.9435C115.414 31.221 115.428 31.3944 115.458 31.4638C115.49 31.5331 115.55 31.5945 115.639 31.6478C115.73 31.6985 115.853 31.7239 116.008 31.7239H116.189V31.872H113.336V31.7239H113.517C113.675 31.7239 113.802 31.6959 113.898 31.6398C113.968 31.6025 114.023 31.5385 114.063 31.4478C114.093 31.3837 114.107 31.2156 114.107 30.9435V26.7575H113.713C113.346 26.7575 113.08 26.8349 112.914 26.9896C112.681 27.2057 112.533 27.5139 112.472 27.9141H112.319V26.4453H117.214Z" fill="#1A1919"/>
<path d="M120.772 31.7239V31.872H117.922V31.7239H118.103C118.261 31.7239 118.388 31.6959 118.485 31.6398C118.554 31.6025 118.608 31.5385 118.645 31.4478C118.675 31.3837 118.69 31.2156 118.69 30.9435V27.3738C118.69 27.0963 118.675 26.9229 118.645 26.8535C118.616 26.7842 118.556 26.7241 118.464 26.6735C118.376 26.6201 118.255 26.5934 118.103 26.5934H117.922V26.4453H120.772V26.5934H120.591C120.433 26.5934 120.305 26.6214 120.209 26.6775C120.139 26.7148 120.084 26.7788 120.044 26.8696C120.015 26.9336 120 27.1017 120 27.3738V30.9435C120 31.221 120.015 31.3944 120.044 31.4638C120.076 31.5331 120.136 31.5945 120.225 31.6478C120.316 31.6985 120.438 31.7239 120.591 31.7239H120.772Z" fill="#1A1919"/>
<path d="M124.389 26.3693C125.257 26.3373 125.962 26.5894 126.503 27.1257C127.047 27.6619 127.319 28.3329 127.319 29.1386C127.319 29.827 127.117 30.4326 126.712 30.9555C126.176 31.6492 125.419 31.996 124.441 31.996C123.461 31.996 122.702 31.6652 122.166 31.0035C121.743 30.4806 121.531 29.8603 121.531 29.1426C121.531 28.3369 121.806 27.6659 122.355 27.1297C122.907 26.5908 123.585 26.3373 124.389 26.3693ZM124.437 26.6254C123.939 26.6254 123.56 26.8789 123.3 27.3858C123.088 27.802 122.982 28.3996 122.982 29.1787C122.982 30.1044 123.146 30.7888 123.473 31.2316C123.7 31.5411 124.019 31.6959 124.429 31.6959C124.705 31.6959 124.936 31.6292 125.121 31.4958C125.356 31.325 125.54 31.0529 125.671 30.6794C125.803 30.3032 125.868 29.8136 125.868 29.2107C125.868 28.493 125.801 27.9567 125.667 27.6019C125.533 27.2444 125.362 26.9923 125.153 26.8455C124.946 26.6988 124.708 26.6254 124.437 26.6254Z" fill="#1A1919"/>
<path d="M129.912 26.4453L132.601 29.811V27.4778C132.601 27.1524 132.554 26.9322 132.46 26.8175C132.331 26.6628 132.116 26.5881 131.813 26.5934V26.4453H133.614V26.5934C133.383 26.6228 133.228 26.6615 133.147 26.7095C133.07 26.7548 133.008 26.8309 132.962 26.9376C132.92 27.0416 132.898 27.2217 132.898 27.4778V31.996H132.761L129.076 27.4778V30.9275C129.076 31.2397 129.147 31.4504 129.289 31.5598C129.433 31.6692 129.598 31.7239 129.783 31.7239H129.912V31.872H127.978V31.7239C128.279 31.7212 128.488 31.6599 128.605 31.5398C128.723 31.4197 128.782 31.2156 128.782 30.9275V27.0977L128.666 26.9536C128.551 26.8095 128.449 26.7148 128.36 26.6695C128.272 26.6241 128.145 26.5988 127.978 26.5934V26.4453H129.912Z" fill="#1A1919"/>
<path d="M137.48 30.3272H135.555L135.326 30.8555C135.251 31.0316 135.213 31.177 135.213 31.2917C135.213 31.4438 135.275 31.5558 135.398 31.6278C135.471 31.6705 135.649 31.7025 135.933 31.7239V31.872H134.12V31.7239C134.316 31.6945 134.476 31.6145 134.602 31.4838C134.728 31.3504 134.884 31.0769 135.069 30.6634L137.018 26.3333H137.094L139.06 30.7834C139.247 31.205 139.401 31.4704 139.522 31.5798C139.613 31.6625 139.742 31.7105 139.908 31.7239V31.872H137.271V31.7239H137.38C137.591 31.7239 137.74 31.6945 137.826 31.6358C137.885 31.5932 137.914 31.5318 137.914 31.4518C137.914 31.4037 137.906 31.3544 137.89 31.3037C137.885 31.2797 137.845 31.1796 137.77 31.0035L137.48 30.3272ZM137.344 30.0311L136.532 28.1622L135.696 30.0311H137.344Z" fill="#1A1919"/>
<path d="M145.447 29.967L145.242 31.872H140.402V31.7239H140.583C140.741 31.7239 140.869 31.6959 140.965 31.6398C141.035 31.6025 141.088 31.5385 141.126 31.4478C141.155 31.3837 141.17 31.2156 141.17 30.9435V27.3738C141.17 27.0963 141.155 26.9229 141.126 26.8535C141.096 26.7842 141.036 26.7241 140.945 26.6735C140.857 26.6201 140.736 26.5934 140.583 26.5934H140.402V26.4453H143.308V26.5934H143.071C142.913 26.5934 142.786 26.6214 142.689 26.6775C142.62 26.7148 142.565 26.7788 142.525 26.8696C142.495 26.9336 142.48 27.1017 142.48 27.3738V30.8315C142.48 31.1089 142.497 31.2863 142.529 31.3637C142.561 31.4384 142.624 31.4944 142.718 31.5318C142.785 31.5558 142.947 31.5678 143.204 31.5678H143.658C143.947 31.5678 144.189 31.5171 144.382 31.4157C144.574 31.3144 144.741 31.1543 144.88 30.9355C145.022 30.7167 145.156 30.3939 145.282 29.967H145.447Z" fill="#1A1919"/>
<path d="M153.325 26.3213V28.2022H153.168C153.05 27.7113 152.83 27.3351 152.509 27.0737C152.187 26.8122 151.823 26.6815 151.416 26.6815C151.075 26.6815 150.763 26.7788 150.479 26.9736C150.195 27.1684 149.987 27.4232 149.856 27.738C149.687 28.1408 149.603 28.589 149.603 29.0826C149.603 29.5682 149.665 30.0111 149.788 30.4113C149.911 30.8088 150.104 31.1103 150.367 31.3157C150.629 31.5185 150.97 31.6198 151.388 31.6198C151.731 31.6198 152.044 31.5451 152.328 31.3957C152.615 31.2463 152.916 30.9889 153.232 30.6234V31.0916C152.927 31.4091 152.608 31.6398 152.276 31.7839C151.946 31.9253 151.56 31.996 151.118 31.996C150.537 31.996 150.02 31.88 149.567 31.6478C149.117 31.4157 148.768 31.0822 148.522 30.6474C148.278 30.2125 148.156 29.7496 148.156 29.2587C148.156 28.7411 148.291 28.2502 148.562 27.786C148.835 27.3218 149.202 26.9616 149.663 26.7055C150.127 26.4494 150.619 26.3213 151.138 26.3213C151.522 26.3213 151.926 26.404 152.352 26.5694C152.599 26.6655 152.755 26.7135 152.822 26.7135C152.908 26.7135 152.982 26.6828 153.043 26.6214C153.108 26.5574 153.149 26.4574 153.168 26.3213H153.325Z" fill="#1A1919"/>
<path d="M157.039 31.7239V31.872H154.189V31.7239H154.37C154.528 31.7239 154.655 31.6959 154.752 31.6398C154.822 31.6025 154.875 31.5385 154.913 31.4478C154.942 31.3837 154.957 31.2156 154.957 30.9435V27.3738C154.957 27.0963 154.942 26.9229 154.913 26.8535C154.883 26.7842 154.823 26.7241 154.732 26.6735C154.643 26.6201 154.523 26.5934 154.37 26.5934H154.189V26.4453H157.039V26.5934H156.858C156.7 26.5934 156.573 26.6214 156.476 26.6775C156.406 26.7148 156.352 26.7788 156.311 26.8696C156.282 26.9336 156.267 27.1017 156.267 27.3738V30.9435C156.267 31.221 156.282 31.3944 156.311 31.4638C156.344 31.5331 156.404 31.5945 156.492 31.6478C156.583 31.6985 156.705 31.7239 156.858 31.7239H157.039Z" fill="#1A1919"/>
<path d="M162.67 26.4453V27.9141H162.525C162.44 27.5752 162.344 27.3324 162.24 27.1857C162.135 27.0363 161.992 26.9176 161.81 26.8295C161.708 26.7815 161.53 26.7575 161.275 26.7575H160.869V30.9435C160.869 31.221 160.884 31.3944 160.914 31.4638C160.946 31.5331 161.006 31.5945 161.094 31.6478C161.186 31.6985 161.309 31.7239 161.464 31.7239H161.645V31.872H158.791V31.7239H158.972C159.13 31.7239 159.258 31.6959 159.354 31.6398C159.424 31.6025 159.479 31.5385 159.519 31.4478C159.548 31.3837 159.563 31.2156 159.563 30.9435V26.7575H159.169C158.802 26.7575 158.536 26.8349 158.369 26.9896C158.136 27.2057 157.989 27.5139 157.927 27.9141H157.775V26.4453H162.67Z" fill="#1A1919"/>
<path d="M169.065 26.4453V26.5934C168.885 26.6174 168.747 26.6695 168.651 26.7495C168.517 26.8615 168.305 27.167 168.016 27.6659L166.834 29.6309V30.9435C166.834 31.2236 166.849 31.3984 166.878 31.4678C166.908 31.5345 166.966 31.5945 167.051 31.6478C167.14 31.6985 167.256 31.7239 167.401 31.7239H167.706V31.872H164.648V31.7239H164.933C165.094 31.7239 165.221 31.6959 165.315 31.6398C165.385 31.6025 165.44 31.5385 165.48 31.4478C165.509 31.3837 165.524 31.2156 165.524 30.9435V29.855L164.242 27.5299C163.987 27.071 163.808 26.8015 163.703 26.7215C163.599 26.6388 163.459 26.5961 163.285 26.5934V26.4453H165.898V26.5934H165.781C165.623 26.5934 165.512 26.6161 165.448 26.6615C165.386 26.7068 165.355 26.7548 165.355 26.8055C165.355 26.9016 165.462 27.143 165.677 27.5299L166.661 29.3267L167.642 27.6899C167.886 27.2898 168.008 27.0243 168.008 26.8936C168.008 26.8215 167.973 26.7615 167.903 26.7135C167.812 26.6468 167.645 26.6068 167.401 26.5934V26.4453H169.065Z" fill="#1A1919"/>
<mask id="mask0" style="mask-type:alpha" maskUnits="userSpaceOnUse" x="0" y="0" width="191" height="21">
<path d="M0 0H190.668V20.3506H0V0Z" fill="white"/>
</mask>
<g mask="url(#mask0)">
<path fill-rule="evenodd" clip-rule="evenodd" d="M94.1164 9.79698V12.5664L95.4768 11.377L94.1467 9.74491L94.1164 9.79698ZM88.6698 19.2536L90.3668 17.2589V10.3822L95.4768 6.19803L98.6491 9.48112L94.1685 13.5637L94.144 15.921L95.7422 16.6985L96.6153 15.9457L96.9057 16.1188L93.9251 19.5914L90.7554 17.8413L89.0828 19.3989L88.6698 19.2536ZM31.9078 13.2011L33.5308 11.8111L31.9078 10.1843V13.2011ZM28.1307 10.6955L33.5553 6.56341L36.6293 9.99228L31.9323 14.0746V16.723L33.4105 17.4045L34.5492 16.6024L34.8391 16.8935L31.5218 20.0776L28.5166 18.2067L27.0412 19.5666L26.7018 19.226L28.1307 17.671V10.6955ZM15.3459 0.121022C16.1201 0.0990388 16.8703 0.145781 17.5955 0.436882C18.0088 0.582432 18.3728 0.802261 18.7588 0.99733C19.2433 0.755518 19.7031 0.486401 20.2122 0.34062C20.9376 0.17031 21.5453 0.244358 22.2242 0.560449C21.7859 0.607191 21.1565 0.63172 20.8171 0.947811C20.6477 1.11835 20.6009 1.40945 20.6009 1.65381L20.6229 8.97019L23.1903 6.56341L25.3469 8.87115L26.6772 7.73105L27.0412 7.99762L25.5413 9.55239V16.0913C25.5413 16.3851 25.5633 16.7477 25.7081 17.0145C25.8535 17.2809 26.1929 17.2809 26.4611 17.2809L27.2601 16.6985L27.5258 16.9678L24.4739 19.8608L21.882 17.7451L21.8354 9.89324L21.1318 9.26129L20.6229 9.84372L20.6009 16.2863C20.6009 16.9678 20.8911 17.3304 21.4219 17.7203L19.0489 19.954L16.2407 17.7698L16.29 1.67857C16.29 1.24169 16.29 0.755518 15.926 0.436882C15.7561 0.293877 15.54 0.219598 15.3459 0.121022ZM11.5437 17.0145V5.0084H10.4518V12.8605C10.4518 13.3441 10.3312 13.9511 10.1151 14.4127C9.8249 14.9731 9.36511 15.3853 8.8558 15.7504C8.3222 16.1406 7.76406 16.4566 7.15918 16.6985C8.27291 17.2094 9.00112 17.454 10.2354 17.3577C10.6954 17.3084 11.1059 17.1846 11.5437 17.0145ZM6.67463 16.4814L6.69916 3.89028C6.64987 3.71997 6.4828 3.84053 6.38446 3.89028C5.41559 4.37668 4.71491 5.37101 4.27664 6.31882C3.57597 7.8766 3.30778 9.62667 3.55144 11.3275C3.7678 12.6406 4.15655 14.0253 5.00486 15.0694C5.48918 15.6516 6.045 16.0693 6.67463 16.4814ZM2.05151 6.29683L5.29503 3.47562L3.18745 3.28031C2.94656 3.25555 1.85737 3.42887 1.71228 3.47562C1.27679 3.62371 0.792699 4.25288 0.743179 4.71453C0.693891 5.24998 1.08264 5.81066 1.49338 6.102C1.66299 6.22279 1.83261 6.27231 2.05151 6.29683ZM15.6113 1.82157C15.7071 1.77483 15.7807 1.62928 15.9012 1.62928C15.9996 1.62928 16.0243 1.77483 16.0243 1.84633C15.9507 2.28576 15.5865 2.8189 15.3702 3.11278C14.8365 3.81623 14.0866 4.47271 13.2628 4.78881C12.9946 4.8846 12.707 4.95888 12.4388 5.03316L12.365 16.6024C12.874 16.3359 13.3831 16.0913 13.8182 15.7284C14.352 15.3138 14.5711 14.7068 14.7134 14.0746L15.102 14.0994C14.9323 15.6794 14.8118 17.0419 13.6268 18.2315C11.8339 20.0283 9.04763 20.5145 6.60336 20.1491C5.02962 19.9323 3.4804 19.3251 2.2924 18.2067C1.10462 17.0858 0.307917 15.5088 0.0644856 13.8796C-0.151641 12.4701 0.113774 11.0361 0.450459 9.64865C0.718651 8.57982 1.32353 7.63224 1.85737 6.6842C0.959306 6.36834 0.474988 5.85718 0.354429 4.86262C0.138533 3.18405 1.25226 1.53302 2.77695 0.876309C3.8909 0.412122 5.10089 0.219598 6.31319 0.194838C7.3288 0.17031 8.34696 0.365379 9.2913 0.730759C10.1616 1.0686 11.0594 1.40945 11.9297 1.75007C12.7782 2.06593 13.7224 2.28576 14.6424 2.1895C15.08 2.14021 15.2718 2.01664 15.6113 1.82157ZM111.823 6.36834L113.927 8.67608L116.131 6.58817L118.553 9.11551L115.794 11.4235L114.22 9.84372L114.242 16.5034L115.02 16.9183L116.06 16.2616L116.374 16.5034L113.057 20.1023L110.561 18.2315L109.11 19.5914L108.721 19.2755L110.246 17.2809V10.2339L109.425 9.23653L109.086 9.40961L108.867 9.23653L111.823 6.36834ZM83.8277 12.907V16.6242C83.8277 17.2094 83.9728 17.1599 84.4574 17.476C84.6025 17.5472 85.1361 17.9651 85.3524 17.8413C85.4508 17.7918 85.4262 17.6958 85.4262 17.5967L85.4508 10.5002L83.8277 9.36033V12.907ZM79.0324 0.851549C79.5661 0.582432 80.1955 0.31586 80.8253 0.390139C81.2849 0.436882 81.7201 0.63172 82.158 0.777501C82.7385 0.535689 83.3187 0.34062 83.9235 0.269117C84.627 0.194838 84.9912 0.219598 85.6178 0.436882C85.2566 0.461641 84.9417 0.511161 84.627 0.681239C84.2875 0.851549 84.0221 1.0686 83.8032 1.35993L83.8277 8.67608L86.346 6.92878L88.9132 8.94265L90.3668 7.92612L90.7061 8.19246L89.2034 9.52786L89.2281 14.9512L83.1981 20.0035L80.3653 18.281L78.9119 19.6655L78.5724 19.3718L80.0258 17.5472V1.35993C80.0258 0.972571 79.3252 0.851549 79.0324 0.851549ZM61.9119 16.9678V13.3686C61.9119 12.8794 61.7011 12.5472 61.0634 12.2285C60.7815 12.0827 60.2917 13.028 60.2174 13.4674C60.048 14.3905 60.0725 16.3359 60.7977 17.0638C61.0169 17.3084 61.4274 17.575 61.7423 17.3304C61.8159 17.2589 61.9119 17.0638 61.9119 16.9678ZM59.8263 9.87936L61.8543 11.8659L61.8682 9.24486L60.5816 9.8303L59.8263 9.87936ZM60.7022 11.8111L58.3785 9.16503C57.7243 8.41228 57.8196 7.04981 58.789 6.63491C59.5142 6.31882 60.6036 6.4919 60.9676 7.26964C61.0881 7.53598 61.2112 7.90136 61.1372 8.19246C61.1129 8.28872 60.9183 8.67608 61.0416 8.7529C61.2112 8.87115 61.597 8.50855 61.7201 8.4345C62.3717 7.97286 62.9053 7.39043 63.3408 6.70919L65.4482 8.28872L66.7072 7.46447L66.9016 7.657L65.7874 8.82441V16.4319C65.7874 16.943 65.8587 17.0638 66.3432 17.2341L67.0932 16.7477L67.3859 16.9183L64.5996 19.9818L61.8872 17.8661L59.4649 20.0283C58.789 19.7617 58.4002 19.4706 57.8939 18.8634C57.1655 18.0364 56.7772 17.3304 56.9248 16.1901C57.0697 14.9512 57.6748 13.8055 58.6684 13.006C59.298 12.5168 59.9739 12.1542 60.7022 11.8111ZM122.728 16.9678V13.3686C122.728 12.8794 122.517 12.5472 121.879 12.2285C121.594 12.0827 121.104 13.028 121.033 13.4674C120.86 14.3905 120.888 16.3359 121.613 17.0638C121.829 17.3084 122.24 17.575 122.557 17.3304C122.629 17.2589 122.728 17.0638 122.728 16.9678ZM120.639 9.87936L122.667 11.8659L122.681 9.24486L121.397 9.8303L120.639 9.87936ZM121.515 11.8111L119.191 9.16503C118.537 8.41228 118.635 7.04981 119.604 6.63491C120.33 6.31882 121.419 6.4919 121.78 7.26964C121.904 7.53598 122.024 7.90136 121.953 8.19246C121.928 8.28872 121.736 8.67608 121.854 8.7529C122.024 8.87115 122.412 8.50855 122.533 8.4345C123.187 7.97286 123.718 7.39043 124.156 6.70919L126.261 8.28872L127.523 7.46447L127.717 7.657L126.603 8.82441V16.4319C126.603 16.943 126.674 17.0638 127.159 17.2341L127.912 16.7477L128.199 16.9183L125.415 19.9818L122.7 17.8661L120.28 20.0283C119.604 19.7617 119.216 19.4706 118.707 18.8634C117.981 18.0364 117.592 17.3304 117.737 16.1901C117.883 14.9512 118.49 13.8055 119.481 13.006C120.113 12.5168 120.789 12.1542 121.515 11.8111ZM48.544 16.6737C49.3675 17.0638 50.167 17.454 51.0866 17.454C51.6697 17.476 52.3209 17.454 52.8797 17.2341C53.0739 17.1351 53.2652 16.9926 53.4598 16.8688L53.4844 4.32716L52.0309 3.30507L51.6202 11.9592C51.5957 12.811 51.2342 13.638 50.8212 14.366C50.4817 14.9512 49.9481 15.4346 49.4416 15.8742C49.1516 16.1188 48.8615 16.3851 48.544 16.6737ZM102.038 6.14874L104.142 8.45903L106.348 6.36834L108.771 8.87115L106.009 11.1817L104.435 9.60191L104.46 16.2616L105.21 16.6985L106.252 16.0198L106.589 16.2863L103.25 19.8608L100.781 17.9871L99.3252 19.3496L98.9145 19.031L100.464 17.0419V10.0143L99.6399 8.99217L99.2785 9.16503L99.0843 8.99217L102.038 6.14874ZM67.2163 9.26129L69.614 6.58817L72.373 8.67608L74.4561 6.4919L77.4339 8.79965L78.8871 7.82708L79.2514 8.04436L77.7734 9.28605V16.3083C77.7734 16.7697 77.8472 17.0145 78.3318 17.0858L78.8163 16.6985L79.0077 16.8935L76.0791 19.7865L73.8264 17.7698V10.3329L72.373 9.28605L72.3975 16.3578C72.3975 16.5804 72.4468 16.8192 72.5674 17.0145C72.6877 17.1599 72.8576 17.2341 73.0272 17.2589L73.5117 16.943L73.7771 17.0858L70.8703 19.9323L68.6452 18.0364L68.6697 10.2339L67.8707 9.43183L67.4572 9.55239L67.2163 9.26129ZM47.4791 6.51389L46.8495 6.95354L46.4885 6.51389L54.5271 0C54.6228 0.535689 54.9376 2.31052 55.9067 2.14021C56.6319 2.01664 57.3106 1.11835 57.6995 0.535689H58.1839C57.9649 1.21693 57.7243 1.82157 57.286 2.40678C56.8508 2.967 56.3419 3.42887 55.7618 3.81623C55.3263 4.10988 54.9871 4.27764 54.478 4.42319L54.4532 16.042C54.7189 15.8247 54.9623 15.6079 55.1787 15.3385C55.6412 14.8274 55.9805 14.2452 56.3419 13.6847L56.7307 13.83C56.3172 14.9731 55.9067 16.1406 55.1569 17.1351C54.3574 18.182 53.2435 19.204 52.0309 19.737C51.1852 20.1271 49.9972 20.2976 49.0776 20.3442C45.4208 20.4925 42.3936 18.0857 41.6191 14.5115C41.4245 13.5637 41.329 12.5664 41.329 11.5938C41.3533 9.99228 42.0077 8.41228 42.8041 7.04981C43.9429 5.05792 45.7848 3.47562 47.8678 2.4806C48.6916 2.09092 49.6577 1.72809 50.6023 1.72809C50.7006 1.72809 50.846 1.75007 50.8925 1.84633C50.917 1.89562 50.8705 1.9699 50.8212 1.9699C49.9016 2.3325 49.707 2.35726 48.8615 2.91771C48.0347 3.47562 47.2384 4.06059 46.6308 4.83809C45.1061 6.73395 44.6465 9.23653 44.9119 11.6213C45.0348 12.7121 45.396 13.8055 46.0037 14.7286C46.4144 15.3385 46.948 15.7999 47.4791 16.2616V6.51389ZM186.19 11.0116L187.788 9.04169C187.4 9.11551 187.01 9.14027 186.6 9.16503C186.214 9.16503 185.85 9.18701 185.462 9.18701V11.0611C185.462 11.2064 185.582 11.2559 185.705 11.2559C185.921 11.2779 186.042 11.1569 186.19 11.0116ZM184.276 16.1188C184.736 16.1188 185.196 16.1901 185.656 16.2863L185.68 13.712C185.44 13.6847 185.245 13.6847 185.029 13.7835C184.881 13.83 184.736 13.83 184.591 13.9043C184.397 14.0006 184.252 14.2174 184.132 14.3905L182.582 16.3083C182.582 16.2368 184.132 16.1188 184.276 16.1188ZM182.774 14.9512L181.999 14.9731L181.977 8.79965L185.9 6.102C186.431 6.46714 187.01 6.6842 187.643 6.90402C188.004 7.02505 188.828 6.9783 189.217 6.80522C189.603 6.65967 190.136 6.22279 190.427 5.98097L190.668 6.05248L187.156 10.6212C187.498 10.5992 187.788 10.5717 188.125 10.4757C188.612 10.3329 189.044 10.1103 189.507 9.89324L189.482 16.723L185.9 19.6877C185.171 19.1298 184.348 18.6929 183.428 18.5693C182.703 18.4485 181.95 18.5693 181.247 18.7424C180.548 18.9099 179.916 19.226 179.314 19.5666L179.12 19.3496L182.774 14.9512ZM176.96 10.1376L176.987 12.5664L178.296 11.377L176.96 10.1376ZM171.488 19.2536L173.183 17.2589V10.3822L178.271 6.19803L181.468 9.48112L176.987 13.5637L176.96 15.921L178.561 16.6985L179.431 15.9457L179.725 16.1188L176.744 19.5914L173.55 17.8413L171.902 19.3989L171.488 19.2536ZM157.396 6.19803L159.454 8.50855L161.731 6.102L164.854 8.57982L167.202 6.22279L170.303 8.57982L171.661 7.48646L171.927 7.70652L170.618 8.97019L170.643 15.9457C170.643 16.6517 170.834 16.8468 171.516 17.0419L172.337 16.4319L172.556 16.6517L169.699 19.6877L166.888 17.2094V10.6707L165.169 9.40961V16.1625C165.12 16.723 165.341 16.9183 165.847 17.0638L166.548 16.4814L166.693 16.6024L163.934 19.836L161.293 17.575L161.271 17.0858V10.6707L159.744 9.45381L159.722 16.2123C159.722 16.3851 159.648 16.5529 159.673 16.723C159.722 16.9183 159.963 17.0858 160.133 17.2094L160.784 16.6737V17.0145L158.558 19.6162L156.016 17.4292V10.6212L154.998 9.45381L154.565 9.77222L154.442 9.52786L157.396 6.19803ZM150.739 2.6759L152.094 4.15685L150.301 6.00573L148.872 4.57152L150.739 2.6759ZM150.323 6.4919L152.649 8.67608L153.884 7.60748L154.248 7.77779L152.964 9.33279V15.6079C152.964 15.921 152.942 16.2616 153.158 16.5034C153.402 16.7697 153.717 16.943 154.056 17.0638L154.782 16.5309L155.096 16.7973L152.044 19.9323L149.477 17.8194L148.024 19.1298L147.66 18.8634L149.187 17.3084V10.5002L147.952 9.60191L147.515 9.94276L147.249 9.72293L150.323 6.4919ZM140.42 16.5034C141.003 16.7697 141.608 16.8192 142.237 16.8688C143.061 16.943 143.595 16.943 144.391 16.7477C144.465 16.4814 144.49 16.2123 144.49 15.9457V5.27498H143.401V11.8879C143.401 12.6406 143.497 13.4894 142.987 14.1241C142.818 14.3167 142.577 14.4895 142.382 14.679C142.021 15.0472 141.657 15.4346 141.219 15.7504C140.88 15.9705 140.614 16.1625 140.42 16.5034ZM139.451 15.7014L139.402 4.01107C138.8 4.32716 138.194 4.68977 137.735 5.24998C137.176 5.95621 136.837 6.82975 136.593 7.70652C136.328 8.70385 136.328 9.72293 136.402 10.7695C136.522 12.0554 136.837 13.4674 137.658 14.5115C138.194 15.1462 138.726 15.4346 139.451 15.7014ZM134.948 6.61015L138.145 3.93679L135.698 3.62371C135.214 3.54943 134.683 3.81623 134.294 4.08535C133.736 4.42319 133.594 5.0084 133.834 5.61559C134.054 6.12398 134.464 6.3931 134.948 6.61015ZM149.042 1.65381C148.971 2.16474 148.823 2.21148 148.483 2.69788C148.341 2.89295 148.146 3.20881 147.974 3.37935C147.443 3.81623 146.912 4.27764 146.379 4.71453C146.063 4.95888 145.675 5.12943 145.311 5.27498L145.338 16.6242C145.771 16.2368 146.231 15.8742 146.62 15.4346C146.983 15.0227 147.298 14.5363 147.589 14.0501L148.218 14.0746C147.854 15.1187 147.394 16.1188 146.718 17.0145C146.037 17.9156 145.24 18.7424 144.247 19.2755C141.994 20.4649 139.21 20.4649 137.031 19.1765C135.288 18.182 133.98 16.4566 133.495 14.4895C133.205 13.3686 133.106 12.1542 133.301 10.9866C133.421 10.2339 133.665 9.45381 133.93 8.7256C134.146 8.1677 134.44 7.63224 134.779 7.12131C134.513 6.85451 134.245 6.61015 133.955 6.36834C133.52 6.00573 133.301 5.396 133.254 4.86262C133.134 3.45086 133.736 2.11545 134.948 1.33795C136.451 0.412122 138.291 -0.121022 140.034 0.145781C142.166 0.461641 144.005 1.65381 146.086 2.11545C147.2 2.35726 148.048 2.14021 149.042 1.65381Z" fill="#1A1919"/>
</g>
</svg>
